<svg width="39" height="33" viewBox="0 0 39 33" fill="none" xmlns="http://www.w3.org/2000/svg">
<path d="M36.8174 12.0037C36.8174 16.986 32.7782 21.0256 27.7967 21.0256C22.8143 21.0256 18.7751 16.986 18.7751 12.0037C18.7751 7.02085 22.8143 2.98169 27.7967 2.98169C31.0689 2.98169 33.8238 4.5492 35.4062 7.15632C35.4062 7.15632 26.8144 16.6089 26.9635 16.9041C27.7967 18.5429 35.8703 10.0136 35.9561 10.2489C36.3103 11.2176 36.8174 10.9109 36.8174 12.0037Z" fill="#F4F2E8"/>
<path d="M18.1171 11.9119C18.1171 15.6809 20.305 18.9485 23.4774 20.5117C23.4579 20.899 23.4468 21.294 23.4494 21.6919C23.4515 26.7932 22.4701 29.2029 21.887 30.183C21.0639 31.5526 20.8019 31.624 20.1623 31.624C20.15 31.624 19.829 31.6197 19.5589 31.3254C19.2204 30.9564 19.0849 30.2735 19.1643 29.3523C19.3593 27.1359 19.07 24.5199 18.3727 22.1743C18.0635 21.1581 17.6903 20.0768 17.0473 19.0415C16.2111 17.6961 15.1668 17.4009 14.4385 17.3882C13.1631 17.3767 12.0195 18.1993 11.4678 19.0313C10.7777 20.073 10.4311 21.2035 10.1521 22.1136L10.133 22.1765C9.44078 24.5148 9.40426 26.7376 9.37623 28.5225C9.36477 29.2716 9.35415 29.9176 9.29767 30.4824C9.29682 30.4947 9.20126 31.6231 8.34468 31.6231C7.63333 31.6231 7.45369 31.5751 6.61919 30.1839C6.0344 29.2012 5.05296 26.7906 5.05848 21.6953C5.08566 17.7356 4.03499 15.5828 2.96012 13.7244L2.82295 13.4747C1.97443 11.9459 1.30428 10.7398 1.2771 7.64848C1.2771 7.56142 1.27965 7.46927 1.28135 7.37329L1.28474 7.13589C1.36034 5.1161 2.05979 3.75499 3.55383 2.72556C4.53315 2.06263 5.86028 1.62138 7.35049 1.45108L9.85612 1.41626C11.2563 1.5305 12.6132 1.84731 13.5823 2.28941L14.0643 2.5026L17.4698 4.3092C17.5331 4.34232 17.6019 4.35889 17.6686 4.35889C17.8189 4.35889 17.9663 4.27777 18.0432 4.13423C18.1519 3.92741 18.0729 3.67175 17.8673 3.56133L15.2318 2.16243C16.4642 1.66894 18.0873 1.37549 19.6646 1.37549C19.6914 1.37549 19.7164 1.37549 19.7415 1.37549C21.7842 1.37549 23.6817 1.866 24.9511 2.72046C24.9562 2.72386 24.9596 2.72725 24.9638 2.73023C21.0091 3.91085 18.1171 7.57968 18.1171 11.9119Z" fill="#F9F2F4"/>
<path d="M23.1227 9.88492C22.9537 9.783 22.7341 9.81145 22.5974 9.95585C22.4598 10.1002 22.4411 10.3194 22.5532 10.4846L26.7911 16.7487C26.8655 16.8582 26.9861 16.927 27.1186 16.9338C27.1266 16.9347 27.1339 16.9347 27.1419 16.9347C27.2659 16.9347 27.3848 16.8807 27.4655 16.7852L38.0915 4.25787C38.2334 4.09012 38.2236 3.84296 38.0703 3.68752C37.917 3.53082 37.6694 3.51765 37.5008 3.65652L35.3795 5.39305C33.4884 3.19871 30.7122 1.90725 27.7976 1.90725C27.3156 1.90725 26.8421 1.94335 26.3779 2.0096C26.2046 1.86521 26.0225 1.72209 25.822 1.58364C24.305 0.562281 22.1799 0 19.8386 0C19.8136 0 19.7915 0 19.7665 0C17.8702 0 15.887 0.386037 14.466 1.03241L14.3509 1.08209L14.2468 1.03665C13.1274 0.526182 11.6431 0.17412 10.0663 0.0458659C10.0378 0.0433178 10.0106 0.0433178 9.97751 0.0433178L7.43026 0.0768677C7.3984 0.0768677 7.36698 0.0794159 7.33555 0.0823886C5.58586 0.279866 4.04553 0.800103 2.87256 1.59299C1.0099 2.87808 0.0998005 4.6231 0.00806898 7.1092L0.0046715 7.32026C0.00254809 7.43578 0 7.5462 0 7.65746C0.0288785 11.0991 0.811145 12.5095 1.71657 14.1407L1.86436 14.4065C2.84835 16.1095 3.80686 18.0745 3.78138 21.692C3.77713 26.8502 4.73309 29.541 5.53829 30.8923C6.41611 32.3579 6.95758 33 8.44228 33C9.84883 33 10.6774 31.7867 10.7657 30.6095C10.8269 29.9975 10.8379 29.2921 10.8494 28.5459C10.877 26.8438 10.911 24.7263 11.5471 22.5779L11.5641 22.5205C11.8317 21.652 12.1328 20.6676 12.7129 19.7915C13.0539 19.2781 13.7716 18.7646 14.4936 18.7646C14.5012 18.7646 14.5089 18.7646 14.5165 18.7646C15.0775 18.7731 15.5693 19.1103 15.977 19.7682C16.5367 20.6689 16.8752 21.6503 17.1542 22.5702C17.7951 24.7208 18.0703 27.212 17.8932 29.2331C17.776 30.5678 18.0282 31.5845 18.6436 32.2555C19.2768 32.9465 20.0429 32.9996 20.2621 32.9996C21.6639 32.9996 22.2899 32.3494 23.1648 30.8885C23.9678 29.5405 24.9251 26.8506 24.923 21.6864C24.9225 21.6223 24.9247 21.5595 24.9251 21.4953C25.8356 21.7693 26.7996 21.9179 27.7981 21.9179C33.3138 21.9179 37.8019 17.429 37.8015 11.9119C37.8015 11.2269 37.7318 10.5428 37.5951 9.88025L35.938 10.2225C36.0513 10.7734 36.1087 11.342 36.1087 11.9124C36.1087 16.4964 32.3812 20.2255 27.7985 20.2255C23.2145 20.2255 19.4857 16.4964 19.4857 11.9124C19.4857 7.32918 23.2145 3.60131 27.7985 3.60131C30.2056 3.60131 32.4989 4.6626 34.0706 6.46623L27.0166 12.2389L23.1227 9.88492ZM17.7917 11.9115C17.7917 15.7065 19.9159 19.0148 23.0374 20.7105C23.0246 21.0341 23.0166 21.3616 23.0187 21.6928C23.0212 26.6663 22.0873 28.9778 21.5302 29.9113C20.8209 31.0949 20.6914 31.0949 20.2799 31.0949C20.2565 31.0932 20.1402 31.0783 20.0332 30.9513C19.9304 30.8294 19.6998 30.4336 19.7907 29.3978C19.9911 27.1169 19.6955 24.4295 18.9787 22.0198C18.6593 20.9704 18.2707 19.8501 17.595 18.7617C16.8442 17.553 15.7613 16.8769 14.5441 16.8595C14.5276 16.8586 14.5106 16.8586 14.4936 16.8586C13.0284 16.8586 11.7501 17.7976 11.1258 18.7383C10.3924 19.8446 10.0336 21.0184 9.74351 21.9608L9.72312 22.027C9.01093 24.4333 8.9744 26.696 8.9451 28.5141C8.93448 29.2496 8.92344 29.8866 8.86908 30.4434C8.86823 30.4502 8.79731 31.0944 8.44228 31.0944C7.93393 31.0944 7.88085 31.0944 7.1729 29.9143C6.61571 28.9778 5.68226 26.6654 5.68523 21.6983C5.71539 17.6091 4.57936 15.2975 3.5219 13.4684L3.38218 13.2157C2.53876 11.6966 1.92934 10.598 1.90428 7.64854C1.90428 7.55766 1.90683 7.45998 1.90895 7.35721L1.91277 7.15591C1.98072 5.2941 2.59142 4.09947 3.947 3.16474C4.84903 2.55489 6.07722 2.1455 7.5033 1.97902L9.95585 1.94717C11.2826 2.05929 12.5562 2.35784 13.4671 2.77318L13.936 2.98043L17.3207 4.77556C17.4638 4.85116 17.6154 4.88683 17.7662 4.88683C18.1081 4.88683 18.4372 4.70337 18.6083 4.38103C18.8542 3.91643 18.6776 3.34056 18.2125 3.09382L16.6845 2.28352C17.6422 2.04358 18.7294 1.90513 19.7724 1.90513C19.7928 1.90513 19.8136 1.90513 19.8336 1.90513C21.3599 1.90513 22.7889 2.19052 23.9046 2.69631C20.3156 4.2171 17.7917 7.77552 17.7917 11.9115Z" fill="#5C437A"/>
<path d="M5.90699 12.3371C5.51543 12.3371 5.13746 12.118 4.95485 11.743C3.83623 9.44713 3.89314 6.12483 6.6625 4.2558C7.14664 3.92837 7.80405 4.05577 8.13105 4.54119C8.45848 5.02533 8.33108 5.68274 7.84652 6.00974C6.11466 7.17847 6.10192 9.26579 6.85658 10.8155C7.11309 11.3399 6.89523 11.9744 6.36947 12.2301C6.2204 12.3023 6.06285 12.3371 5.90699 12.3371Z" fill="white"/>
</svg>
