<svg width="9" height="12" viewBox="0 0 9 12" fill="none" xmlns="http://www.w3.org/2000/svg">
<path d="M8.98916 5.51068C8.97398 5.44622 8.94268 5.38644 8.89806 5.3367C8.85344 5.28697 8.79691 5.24884 8.73352 5.22572L5.78846 4.14583L6.53495 0.481218C6.55212 0.396331 6.54103 0.3083 6.5033 0.230026C6.46558 0.151752 6.4032 0.0873514 6.32532 0.0462642C6.24667 0.00535505 6.15639 -0.00898161 6.06854 0.00548574C5.98069 0.0199531 5.9002 0.0624128 5.83959 0.126256L0.113096 6.12562C0.0661731 6.17322 0.0322223 6.23158 0.0143561 6.29535C-0.0035102 6.35911 -0.00472018 6.42624 0.0108369 6.49058C0.0268442 6.55469 0.0584446 6.61408 0.102953 6.66369C0.14746 6.71331 0.20356 6.75168 0.266484 6.77555L3.21154 7.85544L2.46505 11.52C2.44788 11.6049 2.45897 11.693 2.4967 11.7712C2.53442 11.8495 2.5968 11.9139 2.67468 11.955C2.73339 11.984 2.79811 11.9994 2.86386 12C2.91942 12.0002 2.97444 11.9892 3.02546 11.9677C3.07649 11.9462 3.12243 11.9147 3.16041 11.875L8.8869 5.87565C8.93383 5.82804 8.96778 5.76968 8.98564 5.70592C9.00351 5.64216 9.00472 5.57503 8.98916 5.51068Z" fill="#D80E0E"/>
</svg>
