<svg width="12" height="12" viewBox="0 0 12 12" fill="none" xmlns="http://www.w3.org/2000/svg">
<path d="M10.2902 7.3042C10.0091 7.02311 9.62792 6.86521 9.23048 6.86521C8.83304 6.86521 8.45188 7.02311 8.17081 7.3042L7.93999 7.5345C6.6837 6.48109 5.52234 5.31933 4.46929 4.06261L4.70011 3.83171C4.83933 3.69248 4.94977 3.52717 5.02512 3.34524C5.10047 3.1633 5.13925 2.9683 5.13925 2.77137C5.13925 2.57444 5.10047 2.37944 5.02512 2.19751C4.94977 2.01557 4.83933 1.85027 4.70011 1.71103L3.4279 0.438989C3.14683 0.157904 2.76566 0 2.36823 0C1.97079 0 1.58963 0.157904 1.30855 0.438989L0.610698 1.13708C0.270681 1.47982 0.0587876 1.92907 0.0105412 2.40951C-0.0377052 2.88996 0.0806288 3.37239 0.345704 3.77593C2.42038 6.90298 5.09926 9.5834 8.22476 11.6595C8.62932 11.9212 9.11081 12.0375 9.59017 11.9894C10.0695 11.9412 10.5183 11.7314 10.8627 11.3944L11.5612 10.6963C11.8422 10.4152 12 10.0339 12 9.63628C12 9.23871 11.8422 8.85741 11.5612 8.57624L10.2902 7.3042Z" fill="#5C437A"/>
</svg>
