<svg width="18" height="9" viewBox="0 0 18 9" fill="none" xmlns="http://www.w3.org/2000/svg">
<path d="M5.65233 8.81797C5.71 8.76076 5.75579 8.6927 5.78703 8.61771C5.81827 8.54272 5.83436 8.46229 5.83436 8.38105C5.83436 8.29981 5.81827 8.21937 5.78703 8.14438C5.75579 8.06939 5.71 8.00133 5.65233 7.94412L2.82156 5.11335L17.3077 5.11335C17.4709 5.11335 17.6274 5.04852 17.7429 4.93311C17.8583 4.81771 17.9231 4.66118 17.9231 4.49797C17.9231 4.33476 17.8583 4.17824 17.7429 4.06283C17.6274 3.94742 17.4709 3.88259 17.3077 3.88259L2.83386 3.88259L5.65233 1.07028C5.76694 0.954978 5.83127 0.799008 5.83127 0.636433C5.83127 0.473856 5.76694 0.317886 5.65233 0.202586C5.53703 0.0879698 5.38106 0.0236368 5.21848 0.0236368C5.0559 0.0236368 4.89993 0.0879698 4.78463 0.202586L0.870787 4.11643C0.81811 4.16697 0.776194 4.22764 0.747561 4.2948C0.718927 4.36195 0.704166 4.4342 0.704166 4.5072C0.704166 4.5802 0.718927 4.65245 0.747561 4.71961C0.776194 4.78676 0.81811 4.84743 0.870787 4.89797L4.77848 8.81797C4.83569 8.87565 4.90375 8.92143 4.97874 8.95267C5.05373 8.98391 5.13416 9 5.2154 9C5.29664 9 5.37707 8.98391 5.45206 8.95267C5.52705 8.92143 5.59512 8.87565 5.65233 8.81797Z" fill="black"/>
</svg>
