<svg width="13" height="13" viewBox="0 0 13 13" fill="none" xmlns="http://www.w3.org/2000/svg">
<path d="M6.5 13C4.77609 13 3.12279 12.3152 1.90381 11.0962C0.684819 9.87721 0 8.22391 0 6.5C0 4.77609 0.684819 3.12279 1.90381 1.90381C3.12279 0.684819 4.77609 0 6.5 0C8.22391 0 9.87721 0.684819 11.0962 1.90381C12.3152 3.12279 13 4.77609 13 6.5C13 8.22391 12.3152 9.87721 11.0962 11.0962C9.87721 12.3152 8.22391 13 6.5 13ZM6.5 11.7C7.87913 11.7 9.20177 11.1521 10.177 10.177C11.1521 9.20177 11.7 7.87913 11.7 6.5C11.7 5.12087 11.1521 3.79823 10.177 2.82304C9.20177 1.84786 7.87913 1.3 6.5 1.3C5.12087 1.3 3.79823 1.84786 2.82304 2.82304C1.84786 3.79823 1.3 5.12087 1.3 6.5C1.3 7.87913 1.84786 9.20177 2.82304 10.177C3.79823 11.1521 5.12087 11.7 6.5 11.7ZM5.85 6.7665V2.6H7.15V6.2335L9.7175 8.801L8.801 9.7175L5.85 6.7665Z" fill="#5C437A"/>
</svg>
